<svg width="84" height="84" viewBox="0 0 84 84" fill="none" xmlns="http://www.w3.org/2000/svg">
<g id="clock">
<path id="Vector" d="M66.5 10.5H17.5C13.634 10.5 10.5 13.634 10.5 17.5V66.5C10.5 70.366 13.634 73.5 17.5 73.5H66.5C70.366 73.5 73.5 70.366 73.5 66.5V17.5C73.5 13.634 70.366 10.5 66.5 10.5Z" stroke="#7F56D9" stroke-width="2" stroke-linecap="round" stroke-linejoin="round"/>
<path id="Vector_2" d="M29.75 35C32.6495 35 35 32.6495 35 29.75C35 26.8505 32.6495 24.5 29.75 24.5C26.8505 24.5 24.5 26.8505 24.5 29.75C24.5 32.6495 26.8505 35 29.75 35Z" stroke="#7F56D9" stroke-width="2" stroke-linecap="round" stroke-linejoin="round"/>
<path id="Vector_3" d="M73.5 52.5L56 35L17.5 73.5" stroke="#7F56D9" stroke-width="2" stroke-linecap="round" stroke-linejoin="round"/>
</g>
</svg>
